<?xml version="1.0" encoding="utf-8"?>
<!-- Generator: Adobe Illustrator 27.9.6, SVG Export Plug-In . SVG Version: 9.03 Build 54986)  -->
<svg version="1.1" id="Layer_1" xmlns="http://www.w3.org/2000/svg" xmlns:xlink="http://www.w3.org/1999/xlink" x="0px" y="0px"
	 viewBox="0 0 1504.9 476.5" style="enable-background:new 0 0 1504.9 476.5;" xml:space="preserve">
<style type="text/css">
	.st0{fill:#FFFFFF;}
	.st1{fill:none;}
</style>
<path class="st0" d="M465.3,240.6c-66.7,31.6-146.3,11.5-216.8,4c-5.5,4,10.3,13.3,13.1,16.2c18.5,19.4-26.1,54.2-29,110.1
	c-0.5,9.7-1.4,47.6,6.4,27.8c0.1-0.3,0.3-0.6,0.4-0.9c45.3-73.7,172.4-61.5,227.7-155.2C467.9,241.4,466.6,240,465.3,240.6z"/>
<path class="st0" d="M254,11c29.6,67.6,7.2,146.5-2.4,216.8c3.8,5.6,13.6-9.9,16.6-12.6c19.9-17.9,53.4,27.7,109.2,32.3
	c9.7,0.8,47.5,2.8,27.9-5.6c-0.3-0.1-0.6-0.3-0.9-0.5C332.1,193.9,348.1,67.2,256.1,9.2C254.9,8.4,253.5,9.7,254,11z"/>
<path class="st0" d="M385.9,227"/>
<path class="st0" d="M387.1,229.3c-0.2,0-0.4-0.1-0.6-0.2"/>
<g>
	<path class="st0" d="M552.4,266.3c2.8,3,6.1,6.1,10,9.3c3.8,3.2,8,6,12.7,8.6s9.8,4.7,15.3,6.4c5.5,1.6,11.5,2.4,17.8,2.4
		c3.7,0,7.4-0.5,11.1-1.6c3.7-1.1,7.1-2.7,10.1-4.7c3-2.1,5.5-4.6,7.3-7.5s2.8-6.2,2.8-10c0-8-3.9-14.3-11.7-18.8
		s-20.2-8.9-37.2-13.2c-8.3-2-15.9-4.8-23-8.5s-13.2-8.2-18.3-13.4s-9.1-11.2-11.9-17.9c-2.8-6.7-4.2-14.2-4.2-22.5
		c0-9.1,1.6-17.7,4.9-25.8c3.3-8,8.2-15.2,14.8-21.4c6.6-6.2,14.9-11.1,24.8-14.7c9.9-3.6,21.6-5.4,35.1-5.4
		c11.1,0,20.9,1.1,29.4,3.4s15.7,5,21.7,8.2s10.9,6.4,14.7,9.8s6.7,6,8.6,8l-28.4,31.3c-2.4-2-5.2-4.1-8.3-6.4
		c-3.2-2.3-6.7-4.4-10.6-6.4c-3.9-2-8.2-3.6-12.9-4.9c-4.7-1.3-9.6-2-14.8-2c-3.5,0-6.9,0.5-10.3,1.6c-3.4,1.1-6.4,2.6-9.1,4.4
		c-2.7,1.9-4.9,4-6.5,6.5s-2.4,5.2-2.4,8c0,7.4,3.9,13.4,11.7,17.9c7.8,4.6,18.6,8.4,32.3,11.4c8,2,15.9,4.6,23.7,8
		c7.7,3.4,14.6,7.8,20.7,13.2c6.1,5.4,11,12.1,14.7,20.1c3.7,7.9,5.5,17.6,5.5,28.9c0,9.8-2.2,18.8-6.5,27.1
		c-4.4,8.3-10.3,15.4-17.8,21.5s-16.3,10.8-26.4,14.2c-10.1,3.4-21,5.1-32.8,5.1c-10.9,0-20.8-1-29.7-3.1s-17-4.8-24.1-8.2
		c-7.2-3.4-13.7-7.2-19.4-11.6c-5.8-4.3-10.7-8.8-14.8-13.4L552.4,266.3z"/>
	<path class="st0" d="M725,113.6h47v112.9l46.7-48.3h53.2L817,234.6l62.3,96.6h-54.5l-39.1-64.6l-13.7,14v50.6h-47V113.6z"/>
	<path class="st0" d="M904.1,355.3c2.6,2,5.5,3.7,8.6,5.2c3.2,1.5,6.6,2.3,10.3,2.3c5,0,9.2-1.6,12.6-4.7c3.4-3.2,6.6-8.5,9.6-16.1
		l4.6-12.4L880,178.2h53.5l38.2,96.6l34.6-96.6h49.9l-62.6,152c-3.5,8.5-6.9,16.9-10.3,25.3c-3.4,8.4-7.5,15.9-12.4,22.5
		S960,390,953,394.1c-7.1,4.1-15.9,6.2-26.6,6.2c-8.3,0-15.8-1.1-22.5-3.3c-6.7-2.2-12.9-5.3-18.6-9.5L904.1,355.3z"/>
	<path class="st0" d="M1075.3,178.2h45l1.3,16.6c5-6.1,11.6-11,19.7-14.7c8.2-3.7,16.7-5.5,25.6-5.5c17.6,0,31.6,5.2,41.9,15.7
		c10.3,10.4,15.5,25.9,15.5,46.3v94.6h-47v-88.1c0-8.5-2.1-15.2-6.4-20.2c-4.2-5-10.2-7.5-17.8-7.5c-5.2,0-9.8,0.9-13.7,2.8
		c-3.9,1.9-7.2,4.3-9.8,7.3c-2.6,3-4.6,6.6-5.9,10.6s-2,8.3-2,12.9v82.2H1075v-153L1075.3,178.2L1075.3,178.2z"/>
	<path class="st0" d="M1257.7,178.2h47v88.1c0,8.7,2.1,15.6,6.4,20.6c4.2,5,10.5,7.5,18.8,7.5c4.8,0,9-0.9,12.7-2.8
		c3.7-1.8,6.9-4.3,9.5-7.3s4.6-6.6,5.9-10.8c1.3-4.1,2-8.4,2-12.7v-82.5h46.7v153h-45l-1.3-16.3c-5,5.9-11.6,10.7-19.7,14.5
		s-16.7,5.7-25.6,5.7c-17.6,0-31.5-5.2-41.8-15.7c-10.2-10.4-15.3-25.9-15.3-46.3v-95L1257.7,178.2L1257.7,178.2z"/>
	<path class="st0" d="M1441.4,113.6h47v217.6h-47V113.6z"/>
</g>
<polygon class="st1" points="1940,440.5 1947.8,440.5 1947.8,440.5 "/>
<path class="st0" d="M21.8,226.9c67.6-29.6,146.5-7.2,216.8,2.4c5.6-3.8-9.9-13.6-12.6-16.6c-17.9-19.9,27.7-53.4,32.3-109.2
	c0.8-9.7,2.8-47.5-5.6-27.9c-0.1,0.3-0.3,0.6-0.5,0.9C204.7,148.8,78,132.8,20,224.8C19.3,226,20.5,227.4,21.8,226.9z"/>
<path class="st0" d="M233.6,455.2c-30.5-67.2-9.1-146.4-0.4-216.8c-3.9-5.5-13.5,10.1-16.4,12.8c-19.7,18.2-53.8-27-109.6-30.8
	c-9.7-0.7-47.5-2.2-27.9,5.9c0.3,0.1,0.6,0.3,0.9,0.5c72.9,46.5,58.6,173.4,151.3,230.2C232.7,457.7,234.2,456.5,233.6,455.2z"/>
</svg>
